<?xml version="1.0" encoding="UTF-8"?>
<svg xmlns="http://www.w3.org/2000/svg" xmlns:xlink="http://www.w3.org/1999/xlink" viewBox="0 0 489.5 366.99">
  <defs>
    <style>
      .cls-1 {
        fill: #fff;
      }

      .cls-2 {
        fill: url(#New_Pattern_2);
      }

      .cls-2, .cls-3, .cls-4 {
        mix-blend-mode: multiply;
        opacity: .55;
      }

      .cls-5 {
        fill: #312c56;
      }

      .cls-6 {
        fill: #fac218;
      }

      .cls-7 {
        isolation: isolate;
      }

      .cls-3 {
        fill: #2e2a28;
      }

      .cls-4 {
        fill: url(#New_Pattern_2-2);
      }

      .cls-8 {
        stroke: #ff5c4d;
        stroke-linecap: round;
        stroke-linejoin: round;
        stroke-width: 2.04px;
      }

      .cls-8, .cls-9 {
        fill: none;
      }

      .cls-10 {
        fill: #ff0;
      }
    </style>
    <pattern id="New_Pattern_2" data-name="New Pattern 2" x="0" y="0" width="25" height="25" patternTransform="translate(-11582.22 -12032.9) rotate(-180) scale(.51)" patternUnits="userSpaceOnUse" viewBox="0 0 25 25">
      <g>
        <rect class="cls-9" width="25" height="25"/>
        <circle class="cls-5" cx="12.5" cy="12.5" r="4.5"/>
      </g>
    </pattern>
    <pattern id="New_Pattern_2-2" data-name="New Pattern 2" patternTransform="translate(-11585.67 -12023.04) rotate(-180) scale(.51)" xlink:href="#New_Pattern_2"/>
  </defs>
  <g class="cls-7">
    <g id="_1" data-name="1">
      <circle class="cls-2" cx="275.84" cy="95.65" r="95.65"/>
      <circle class="cls-4" cx="120.81" cy="269.72" r="95.65"/>
      <g>
        <path class="cls-8" d="M176.66,300.51l94.01,59.24c10,6.3,23.08-.57,23.57-12.38l1.77-42.85"/>
        <path class="cls-8" d="M304.75,92.53l1.8-43.76c.49-11.81-11.98-19.73-22.47-14.28L17.83,173.08c-10.53,5.48-11.14,20.32-1.1,26.65l24.67,15.54"/>
      </g>
      <g>
        <path class="cls-1" d="M237.16,366.99c-9.57,0-18.55-3.29-24.34-8.98l-43.77-43.03c-.72-.71-.73-1.87-.02-2.59,.71-.72,1.87-.73,2.59-.02l43.77,43.03c5.48,5.39,14.32,8.34,23.63,7.88,8.24-.4,15.29-3.42,19.34-8.27l37.13-44.42c.65-.77,1.8-.88,2.58-.23,.78,.65,.88,1.8,.23,2.58l-37.13,44.42c-4.71,5.63-12.72,9.12-21.97,9.58-.68,.03-1.37,.05-2.04,.05Z"/>
        <path class="cls-1" d="M47.52,194.78c-.46,0-.93-.17-1.28-.53l-32.32-31.77c-5.15-5.06-7.03-11.39-5.15-17.37,2.35-7.52,10.25-13.29,20.62-15.08L452.49,57.35c16.25-2.79,29.78,4.47,34.74,13.09,3.57,6.21,2.9,13.03-1.85,18.71l-37.47,44.82c-.65,.78-1.8,.88-2.58,.23-.78-.65-.88-1.8-.23-2.58l37.47-44.82c3.76-4.5,4.29-9.66,1.49-14.53-4.22-7.33-16.51-13.79-30.95-11.31L30,133.65c-9,1.55-15.8,6.36-17.74,12.56-1.47,4.69,.03,9.54,4.23,13.67l32.32,31.77c.72,.71,.73,1.87,.02,2.59-.36,.36-.83,.55-1.31,.55Z"/>
      </g>
      <g>
        <g>
          <path class="cls-10" d="M72.04,181.59l3.55-8.43c3.39,1.72,8.2,2.52,12.62,1.87,4.48-.66,6.23-2.17,6.23-4.01,0-6.01-21.75,1.59-21.75-12.48,0-6.77,5.57-13.11,16.94-14.8,4.97-.74,10.11-.36,13.88,1.25l-3.33,8.45c-3.66-1.41-7.27-1.85-10.6-1.35-4.54,.67-6.17,2.43-6.17,4.33,0,5.79,21.69-1.75,21.7,12.22,0,6.61-5.57,13.06-16.94,14.74-6.28,.93-12.51,.17-16.12-1.78Z"/>
          <path class="cls-10" d="M139.69,166.7v8.28s-30.71,4.55-30.71,4.55v-37.9s29.99-4.44,29.99-4.44v8.28s-19.29,2.85-19.29,2.85v6.39s17-2.52,17-2.52v8.01s-16.99,2.52-16.99,2.52v6.93s20-2.96,20-2.96Z"/>
          <path class="cls-10" d="M170.17,150.71l9.56-1.42v15.7c-4.42,3.8-10.49,6.37-16.06,7.2-12.18,1.8-21.09-5.05-21.09-16.58s8.9-21.02,21.31-22.86c7.16-1.06,12.95,.52,16.72,4.45l-6.88,7.19c-2.62-2.48-5.63-3.39-9.29-2.85-6.56,.97-10.93,5.9-10.93,12.45,0,6.39,4.37,10.18,10.82,9.23,2.02-.3,3.93-.96,5.85-2.11v-10.39Z"/>
          <path class="cls-10" d="M185.2,151.36v-21.01s10.82-1.6,10.82-1.6v20.68c0,6.5,2.74,8.69,7.27,8.02,4.48-.66,7.21-3.67,7.21-10.16v-20.68s10.65-1.58,10.65-1.58v21.01c0,11.31-6.66,18.64-17.97,20.31-11.31,1.67-17.98-3.67-17.98-14.99Z"/>
          <path class="cls-10" d="M244.1,149.46l-5.9,.87v10.07s-10.82,1.6-10.82,1.6v-37.9s17.48-2.59,17.48-2.59c10.44-1.54,16.99,2.84,17,11.51,0,5.58-2.73,10.09-7.49,13.07l8.25,10.69-11.58,1.71-6.94-9.04Zm.11-19.4l-6.01,.89v11.1s6.01-.89,6.01-.89c4.48-.66,6.72-3.05,6.72-6.52,0-3.52-2.24-5.24-6.72-4.58Z"/>
          <path class="cls-10" d="M292.35,145.03l-16.17,2.39-3,7.81-11.04,1.63,16.88-40.4,10.66-1.58,16.94,35.39-11.26,1.67-3.01-6.92Zm-3.17-7.43l-4.92-11.4-4.92,12.85,9.83-1.46Z"/>
          <path class="cls-10" d="M344.97,106.7v37.9s-8.9,1.32-8.9,1.32l-16.89-17.69v20.19s-10.6,1.57-10.6,1.57v-37.9s8.9-1.32,8.9-1.32l16.89,17.69v-20.19s10.6-1.57,10.6-1.57Z"/>
          <path class="cls-10" d="M380.16,126.83l6.89,5.15c-3.5,4.9-8.8,8.18-15.35,9.42l-.49,2.08c3.39-.12,4.7,1.69,4.7,3.69,0,3.46-3.44,6.14-8.63,6.91-1.86,.27-3.99,.1-5.19-.37l1.42-4.27c.93,.3,2.08,.45,3.39,.26,1.97-.29,2.73-1.05,2.73-1.92,0-.81-.71-1.25-2.46-.99l-2.02,.3,1.2-5.21c-9.89-.21-16.78-6.77-16.78-16.9,0-11.53,8.9-21.02,21.03-22.82,7.05-1.04,12.73,.66,16.45,4.71l-6.88,7.19c-2.41-2.51-5.36-3.65-9.02-3.1-6.28,.93-10.65,5.91-10.65,12.41,0,6.5,4.37,10.18,10.66,9.25,3.66-.54,6.61-2.55,9.02-5.77Z"/>
          <path class="cls-10" d="M415.73,126.76l-16.17,2.39-3,7.81-11.04,1.63,16.88-40.4,10.66-1.58,16.94,35.39-11.26,1.67-3.01-6.92Zm-3.17-7.43l-4.92-11.4-4.92,12.85,9.84-1.46Z"/>
        </g>
        <g>
          <path class="cls-1" d="M148.93,197.17l-17.06,41.97-11.09,1.64-17.01-36.93,12.17-1.8,10.81,24.1,11.03-27.33,11.15-1.65Z"/>
          <path class="cls-1" d="M182.1,223.08v8.62s-31.96,4.73-31.96,4.73v-39.44s31.22-4.62,31.22-4.62v8.62s-20.08,2.97-20.08,2.97v6.65s17.69-2.62,17.69-2.62v8.34s-17.69,2.62-17.69,2.62v7.21s20.82-3.08,20.82-3.08Z"/>
          <path class="cls-1" d="M187.21,191.5l11.26-1.67v39.44s-11.26,1.67-11.26,1.67v-39.44Z"/>
          <path class="cls-1" d="M203.31,208.84c0-12,9.27-21.88,21.89-23.75,7.34-1.09,13.25,.69,17.12,4.9l-7.17,7.48c-2.5-2.62-5.58-3.8-9.39-3.23-6.54,.97-11.09,6.15-11.09,12.91,0,6.76,4.55,10.6,11.09,9.63,3.81-.56,6.88-2.65,9.38-6.01l7.17,5.36c-3.87,5.36-9.78,8.89-17.12,9.97-12.63,1.87-21.9-5.27-21.9-17.27Z"/>
          <path class="cls-1" d="M245.39,204.75v-21.86s11.26-1.67,11.26-1.67v21.52c0,6.76,2.85,9.05,7.57,8.35,4.66-.69,7.51-3.82,7.51-10.58v-21.53s11.09-1.64,11.09-1.64v21.86c0,11.78-6.93,19.4-18.71,21.14-11.77,1.74-18.71-3.82-18.72-15.6Z"/>
          <path class="cls-1" d="M289.3,176.39l11.26-1.67v30.6s19-2.81,19-2.81v8.85s-30.26,4.48-30.26,4.48v-39.44Z"/>
          <path class="cls-1" d="M349.98,199.19l-16.84,2.49-3.13,8.13-11.49,1.7,17.57-42.05,11.09-1.64,17.64,36.84-11.72,1.73-3.13-7.2Zm-3.3-7.74l-5.12-11.87-5.12,13.38,10.24-1.52Z"/>
          <path class="cls-1" d="M384.28,191.29l-6.14,.91v10.48s-11.26,1.67-11.26,1.67v-39.44s18.19-2.69,18.19-2.69c10.86-1.61,17.69,2.96,17.69,11.98,0,5.8-2.84,10.51-7.79,13.61l8.59,11.13-12.06,1.78-7.22-9.41Zm.11-20.19l-6.26,.93v11.55s6.26-.93,6.26-.93c4.66-.69,6.99-3.18,6.99-6.78,0-3.66-2.33-5.46-7-4.77Z"/>
        </g>
      </g>
      <g>
        <g>
          <path class="cls-1" d="M43.83,67.27c-.06-4.77,3.2-9.32,7.65-10.76,2.26-.73,4.23-.52,5.59,.71l-1.34,1.89c-1.14-.95-2.53-1.1-4.14-.58-3.3,1.07-5.71,4.49-5.67,8.06,.04,3.57,2.52,5.41,5.82,4.33,1.61-.52,2.98-1.59,4.09-3.27l1.37,1.01c-1.32,2.09-3.27,3.6-5.55,4.34-4.43,1.44-7.77-.97-7.83-5.74Z"/>
          <path class="cls-1" d="M58.2,62.61c-.06-4.72,3.2-9.32,7.69-10.77,4.45-1.44,7.79,.99,7.85,5.73,.06,4.75-3.2,9.32-7.65,10.76-4.49,1.46-7.83-1-7.89-5.72Zm13.45-4.36c-.04-3.57-2.5-5.41-5.73-4.36-3.28,1.06-5.67,4.48-5.63,8.05,.04,3.57,2.5,5.41,5.78,4.35,3.24-1.05,5.63-4.46,5.59-8.03Z"/>
          <path class="cls-1" d="M88.99,44.53l.19,16.13-1.71,.56-8.92-9.18,.14,12.03-2.09,.68-.19-16.13,1.71-.55,8.92,9.18-.14-12.03,2.09-.68Z"/>
          <path class="cls-1" d="M105.54,39.17l.19,16.13-2.09,.68-.09-7.19-8.4,2.72,.09,7.19-2.09,.68-.19-16.13,2.09-.68,.08,6.93,8.4-2.72-.08-6.94,2.09-.68Z"/>
          <path class="cls-1" d="M120.28,48.56l.02,2-10.61,3.44-.19-16.13,10.32-3.35,.02,2-8.23,2.67,.06,4.95,7.33-2.38,.02,1.96-7.33,2.38,.06,5.21,8.52-2.76Z"/>
          <path class="cls-1" d="M133.92,42.33l1.38,1.01c-1.3,2.04-3.19,3.53-5.4,4.29l-.22,1.04c1.21-.26,1.83,.31,1.84,1.32,.02,1.29-1,2.43-2.56,2.94-.73,.24-1.34,.27-1.86,.1l.42-1.27c.44,.13,.9,.1,1.42-.07,.79-.26,1.17-.73,1.16-1.3,0-.53-.37-.78-1.2-.51l-.56,.18,.44-2.13c-3.93,.81-6.79-1.59-6.84-5.99-.06-4.77,3.2-9.32,7.65-10.76,2.26-.73,4.23-.52,5.59,.71l-1.34,1.89c-1.14-.95-2.53-1.1-4.14-.58-3.3,1.07-5.71,4.49-5.67,8.06,.04,3.57,2.52,5.41,5.82,4.33,1.61-.52,2.98-1.59,4.09-3.27Z"/>
          <path class="cls-1" d="M146.8,37.92l-7.77,2.52-1.56,4.55-2.15,.7,6.43-18.27,2.07-.67,6.83,13.97-2.19,.71-1.66-3.51Zm-.75-1.61l-3.25-6.88-3.06,8.93,6.31-2.05Z"/>
        </g>
        <g>
          <path class="cls-1" d="M18.41,97.93l.25,21.35-4.5,1.46-8.67-8.61,.14,11.38-5.36,1.74-.25-21.35,4.5-1.46,8.67,8.61-.14-11.38,5.36-1.74Z"/>
          <path class="cls-1" d="M20.86,107.85c-.08-6.41,4.43-12.58,10.62-14.59,6.19-2.01,10.81,1.21,10.88,7.62,.08,6.4-4.43,12.58-10.62,14.59-6.19,2.01-10.81-1.21-10.88-7.61Zm15.97-5.18c-.04-3.69-2.37-5.36-5.3-4.41-2.93,.95-5.19,4.1-5.15,7.79s2.37,5.36,5.3,4.41c2.93-.95,5.19-4.1,5.15-7.79Z"/>
          <path class="cls-1" d="M43.44,109.32l1.74-5.03c1.73,.69,4.17,.76,6.41,.03,2.27-.74,3.14-1.72,3.13-2.76-.04-3.38-11.01,2.65-11.1-5.28-.04-3.81,2.74-7.84,8.49-9.7,2.51-.82,5.12-1.02,7.04-.42l-1.63,5.03c-1.86-.5-3.69-.45-5.38,.09-2.29,.74-3.11,1.87-3.1,2.93,.04,3.26,10.98-2.74,11.07,5.13,.04,3.72-2.74,7.81-8.48,9.67-3.18,1.03-6.34,1.11-8.18,.3Z"/>
          <path class="cls-1" d="M60.77,103.69l1.74-5.03c1.73,.69,4.17,.76,6.41,.03,2.27-.73,3.14-1.72,3.13-2.76-.04-3.38-11.01,2.65-11.1-5.28-.04-3.81,2.74-7.84,8.48-9.7,2.52-.82,5.12-1.02,7.04-.42l-1.63,5.03c-1.86-.5-3.7-.45-5.38,.09-2.29,.74-3.11,1.87-3.1,2.93,.04,3.26,10.98-2.74,11.07,5.13,.04,3.72-2.74,7.81-8.48,9.67-3.18,1.03-6.34,1.11-8.18,.3Z"/>
          <path class="cls-1" d="M92.39,91.2l-8.18,2.65-1.47,4.64-5.58,1.81,8.29-24.12,5.39-1.75,8.82,18.57-5.69,1.85-1.57-3.66Zm-1.66-3.93l-2.57-6.03-2.41,7.64,4.97-1.61Z"/>
          <path class="cls-1" d="M107.89,68.91l5.47-1.78,.2,16.56,9.23-2.99,.06,4.79-14.7,4.77-.25-21.35Z"/>
          <path class="cls-1" d="M124.19,63.62l5.47-1.77,.25,21.35-5.47,1.77-.25-21.35Z"/>
          <path class="cls-1" d="M151.42,54.79l.25,21.35-4.5,1.46-8.67-8.61,.14,11.38-5.36,1.74-.25-21.35,4.5-1.46,8.67,8.61-.14-11.38,5.36-1.74Z"/>
          <path class="cls-1" d="M173.14,47.74l.25,21.35-5.47,1.78-.1-8.33-7.46,2.42,.1,8.33-5.47,1.77-.25-21.35,5.47-1.77,.1,8.02,7.46-2.42-.1-8.02,5.47-1.78Z"/>
          <path class="cls-1" d="M189.63,59.66l-8.18,2.65-1.47,4.64-5.58,1.81,8.29-24.12,5.39-1.75,8.82,18.57-5.69,1.85-1.57-3.66Zm-1.66-3.93l-2.57-6.03-2.41,7.64,4.97-1.61Z"/>
          <path class="cls-1" d="M205.13,37.37l9.15-2.97c6.41-2.08,10.85,.61,10.93,7.17,.08,6.56-4.27,12.1-10.68,14.18l-9.15,2.97-.25-21.35Zm9.12,13.64c3.29-1.07,5.47-3.95,5.43-7.64s-2.28-5.14-5.57-4.07l-3.45,1.12,.14,11.71,3.45-1.12Z"/>
          <path class="cls-1" d="M243.14,41.79l.06,4.67-15.53,5.04-.25-21.35,15.17-4.92,.06,4.67-9.76,3.16,.04,3.6,8.6-2.79,.05,4.51-8.6,2.79,.05,3.9,10.12-3.28Z"/>
        </g>
      </g>
      <g>
        <path class="cls-3" d="M278.44,239.76c-18.62-.57-34.95,9.47-43.4,24.53-3.06,5.46-8.81,8.75-15.05,9.23-.09,0-.17,.01-.26,.02-10.96,.96-19.74,10-20.41,20.98-.8,13.05,9.55,23.89,22.43,23.89,1.65,0,3.26-.18,4.81-.52,6.14-1.34,12.62,.19,17.15,4.53,8.62,8.27,20.32,13.35,33.22,13.35,27.14,0,49.03-22.52,47.98-49.9-.95-25.03-21.45-45.36-46.48-46.12Z"/>
        <path class="cls-6" d="M274.35,233.63c-18.62-.57-34.95,9.47-43.4,24.53-3.06,5.46-8.81,8.75-15.05,9.23-.09,0-.17,.01-.26,.02-10.96,.96-19.74,10-20.41,20.98-.8,13.05,9.55,23.89,22.43,23.89,1.65,0,3.26-.18,4.81-.52,6.14-1.34,12.62,.19,17.15,4.53,8.62,8.27,20.32,13.35,33.22,13.35,27.14,0,49.03-22.52,47.98-49.9-.95-25.03-21.45-45.36-46.48-46.12Z"/>
      </g>
      <path d="M271.49,245.46c1.04,0,2.08,0,3.12,0,.14,.04,.29,.09,.44,.11,8.88,.9,16.14,7.21,18.22,15.85,.38,1.57,.59,3.17,.56,4.8h-8.26c-.05-.54-.08-1.04-.16-1.53-.76-4.92-3.43-8.39-8.08-10.11-4.66-1.72-8.97-.79-12.69,2.5-4.06,3.59-4.4,8.34-3.98,13.34,.25,0,.5,0,.76,0,9.4,0,18.8,0,28.2,0,4.7,0,8.38,3.68,8.38,8.36,.01,8.27,.01,16.55,0,24.82,0,4.73-3.67,8.4-8.41,8.4-11.03,.01-22.05,.01-33.08,0-4.74,0-8.41-3.67-8.42-8.4,0-8.25,0-16.51,0-24.76,0-2.97,1.28-5.3,3.71-6.98,.35-.24,.45-.49,.46-.89,.02-2.23-.06-4.47,.12-6.69,.66-8.32,6.69-15.64,14.74-17.94,1.43-.41,2.91-.6,4.37-.89Zm-2.6,54.02h8.32c0-1.74,.01-3.42,0-5.11,0-.41,.1-.72,.4-1.03,1-1.03,1.55-2.29,1.67-3.71,.24-2.85-1.52-5.49-4.25-6.42-2.67-.9-5.67,.16-7.21,2.56-1.55,2.41-1.25,5.49,.7,7.62,.22,.24,.37,.63,.38,.95,.04,1.7,.02,3.41,.02,5.15Z"/>
    </g>
  </g>
</svg>